<svg xmlns="http://www.w3.org/2000/svg" data-name="Layer 1" viewBox="0 0 1157.52 195.81"><path d="m12.1 68.06-.13-28.62h25.45L36.4 68.06h23.85l12.94-28.62h22.47l-.1 28.62h23.39l12.48-28.62h25.22l-13.4 28.62h8.61l-4.41 18.68h-12.74l-32.19 69.41H72.48l.22-67.01-30.48 67.01H12.41l-.13-69.41H0l4.41-18.68h7.69Zm24.4 52.1 14.99-33.42H35.9l-.78 33.42h1.38Zm60.07 0 14.3-33.42H95.28l-.09 33.42h1.38Zm98.8-93.33h-27.06L173.04 0h27.06l-4.73 26.83Zm-22.81 129.31H145.5l20.58-116.71h27.06l-20.58 116.71ZM214.67 0h27.06L214.2 156.14h-27.06L214.67 0Zm54.91 156.14c-6.73 0-12.55-.99-17.47-2.98-4.92-1.98-8.93-4.85-12.01-8.6-3.09-3.74-5.16-8.25-6.21-13.53-1.06-5.27-1.02-11.12.11-17.54l5.54-31.41c1.16-6.57 3.19-12.46 6.09-17.66 2.9-5.19 6.55-9.63 10.94-13.3s9.41-6.53 15.04-8.6c5.64-2.06 11.82-3.1 18.54-3.1h9.17c6.42 0 12.07.92 16.94 2.75L323.7-.02h25.68l-27.53 156.14h-52.28Zm31.24-26.36 8.29-47c.89-5.04-.07-9.13-2.88-12.27-2.81-3.13-6.66-4.7-11.55-4.7h-9.17c-4.89 0-9.33 1.57-13.32 4.7s-6.43 7.22-7.32 12.27l-5.26 29.81c-.89 5.04.1 9.17 2.98 12.38 2.87 3.21 6.75 4.81 11.65 4.81h26.6Zm190.33-90.34-20.62 116.94c-1.1 6.27-3 11.81-5.68 16.62s-5.93 8.94-9.75 12.38c-3.82 3.44-8.17 6.04-13.07 7.8-4.89 1.76-10.09 2.64-15.6 2.64h-52.51l4.49-25.45h48.15c4.74 0 8.93-1.45 12.58-4.36 3.64-2.91 5.93-6.96 6.84-12.15l.24-1.38h-34.16c-5.04 0-9.67-.88-13.87-2.64-4.2-1.76-7.67-4.39-10.41-7.91-2.74-3.51-4.66-7.83-5.74-12.95-1.09-5.12-1.03-11.04.15-17.77l5.38-30.5c1.19-6.72 3.22-12.65 6.11-17.77 2.89-5.12 6.33-9.44 10.31-12.95 3.98-3.51 8.38-6.15 13.2-7.91 4.82-1.76 9.75-2.64 14.8-2.64h59.16Zm-29.71 25.45h-28.2c-2.29 0-4.52.5-6.68 1.49-2.16 1-4.17 2.37-6 4.13a28.277 28.277 0 0 0-4.7 5.85c-1.29 2.14-2.17 4.51-2.63 7.11l-4.37 24.76c-.46 2.6-.43 5.04.08 7.34.51 2.29 1.38 4.28 2.62 5.96 1.23 1.68 2.75 3.02 4.57 4.01 1.81 1 3.86 1.49 6.16 1.49h28.2l10.96-62.14Zm90.14-25.45c6.72 0 12.54 1.03 17.45 3.1 4.91 2.06 8.91 4.93 12.01 8.6 3.1 3.67 5.18 8.1 6.25 13.3 1.07 5.2 1.03 11.08-.13 17.66l-5.54 31.41c-1.13 6.42-3.16 12.27-6.07 17.54-2.92 5.27-6.58 9.78-10.98 13.53s-9.42 6.61-15.04 8.6c-5.62 1.99-11.8 2.98-18.52 2.98h-9.4c-6.57 0-12.36-.99-17.36-2.98-5-1.98-9.04-4.85-12.13-8.6-3.09-3.74-5.12-8.25-6.1-13.53-.98-5.27-.91-11.12.23-17.54l5.54-31.41c1.16-6.57 3.15-12.46 5.98-17.66 2.83-5.19 6.43-9.63 10.83-13.3 4.39-3.67 9.44-6.53 15.16-8.6 5.71-2.06 11.86-3.1 18.43-3.1h9.4Zm-14.05 26.37c-4.74 0-9.03 1.57-12.87 4.7s-6.2 7.22-7.09 12.27l-5.26 29.81c-.89 5.04.02 9.17 2.75 12.38 2.72 3.21 6.45 4.81 11.19 4.81h9.4c4.89 0 9.19-1.6 12.89-4.81 3.7-3.21 5.99-7.34 6.88-12.38l5.26-29.81c.89-5.04.04-9.13-2.54-12.27-2.58-3.13-6.32-4.7-11.21-4.7h-9.4Zm58.34 10.54c1.32-4.89 3.25-9.55 5.79-13.99 2.54-4.43 5.79-8.33 9.74-11.69 3.95-3.36 8.64-6.08 14.04-8.14 5.41-2.06 11.4-3.1 17.97-3.1h13.76c6.88 0 12.67 1.15 17.39 3.44 4.72 2.29 8.42 5.31 11.13 9.06 2.7 3.75 4.47 8.02 5.3 12.84.83 4.81.82 9.67-.05 14.56l-13.54 76.81h-65.12c-5.04 0-9.39-.95-13.02-2.87-3.64-1.91-6.52-4.43-8.64-7.57-2.12-3.13-3.46-6.84-4-11.12-.55-4.28-.39-8.86.48-13.76s2.3-9.17 4.41-13.3c2.1-4.13 4.71-7.68 7.84-10.66 3.12-2.98 6.79-5.35 11-7.11 4.21-1.76 8.76-2.64 13.65-2.64h39.21l.4-2.29c.49-2.75.71-5.31.67-7.68-.04-2.37-.53-4.39-1.45-6.08-.93-1.68-2.53-3.02-4.79-4.01-2.27-.99-5.47-1.49-9.6-1.49h-5.73c-6.12 0-10.63.88-13.54 2.64-2.91 1.76-5.14 4.47-6.71 8.14h-26.6Zm15.77 44.48c-.7 3.98-.42 6.92.85 8.83 1.27 1.91 2.9 2.87 4.88 2.87h37.83l4.12-23.39h-37.83c-1.99 0-3.96 1-5.91 2.98-1.96 1.99-3.27 4.89-3.94 8.71Zm91.67-81.39h21.55L731.81 0h27.06l-6.95 39.44h21.55l-4.65 26.37h-21.55l-15.93 90.34h-27.06l15.93-90.34h-21.55l4.65-26.37Zm151.88 90.34c3.67 0 6.95-.88 9.87-2.64 2.91-1.76 5.01-4.16 6.32-7.22h27.29c-3.32 11.01-9.15 19.8-17.49 26.37-8.35 6.57-18.56 9.86-30.63 9.86h-9.4c-6.57 0-12.36-.99-17.36-2.98-5-1.98-9-4.85-12.01-8.6-3.01-3.74-5.08-8.25-6.21-13.53-1.13-5.27-1.13-11.12 0-17.54l5.54-31.41c1.16-6.57 3.23-12.46 6.21-17.66 2.98-5.19 6.63-9.63 10.94-13.3 4.32-3.67 9.33-6.53 15.04-8.6 5.71-2.06 11.86-3.1 18.43-3.1h9.4c12.38 0 21.58 3.29 27.61 9.86 6.02 6.57 8.56 15.59 7.61 27.06h-27.06c-.33-3.36-1.55-5.96-3.67-7.8-2.12-1.83-5.17-2.75-9.14-2.75h-9.4c-4.89 0-9.18 1.57-12.87 4.7-3.69 3.13-5.97 7.22-6.86 12.27l-5.26 29.81c-.89 5.04-.05 9.17 2.52 12.38 2.57 3.21 6.29 4.81 11.19 4.81h9.4Zm116.19-90.34c6.72 0 12.54 1.03 17.45 3.1 4.91 2.06 8.91 4.93 12.01 8.6 3.1 3.67 5.18 8.1 6.25 13.3 1.07 5.2 1.03 11.08-.13 17.66l-5.54 31.41c-1.13 6.42-3.16 12.27-6.07 17.54-2.92 5.27-6.58 9.78-10.98 13.53-4.41 3.75-9.42 6.61-15.04 8.6-5.62 1.99-11.8 2.98-18.52 2.98h-9.4c-6.57 0-12.36-.99-17.36-2.98-5-1.98-9.04-4.85-12.13-8.6-3.09-3.74-5.12-8.25-6.1-13.53-.98-5.27-.91-11.12.23-17.54l5.54-31.41c1.16-6.57 3.15-12.46 5.98-17.66 2.83-5.19 6.43-9.63 10.83-13.3 4.39-3.67 9.44-6.53 15.16-8.6 5.71-2.06 11.86-3.1 18.43-3.1h9.4Zm-14.05 26.37c-4.74 0-9.03 1.57-12.87 4.7s-6.2 7.22-7.09 12.27l-5.26 29.81c-.89 5.04.02 9.17 2.75 12.38 2.72 3.21 6.45 4.81 11.19 4.81h9.4c4.89 0 9.19-1.6 12.89-4.81 3.7-3.21 5.99-7.34 6.88-12.38l5.26-29.81c.89-5.04.04-9.13-2.54-12.27-2.58-3.13-6.32-4.7-11.21-4.7h-9.4Zm97.34-38.98h-27.06L1032.34 0h27.06l-4.73 26.83Zm-22.8 129.31h-27.06l20.58-116.71h27.06l-20.58 116.71Zm76.32-90.56c-3.98 0-7.31.5-10.01 1.49-2.7 1-4.88 2.33-6.55 4.01-1.67 1.68-2.99 3.71-3.94 6.08-.96 2.37-1.67 4.93-2.16 7.68l-12.57 71.31h-26.83l20.58-116.71h26.83l-.53 2.98c5.7-1.98 11.61-2.98 17.72-2.98h11.92c6.72 0 12.48 1.15 17.28 3.44 4.79 2.29 8.58 5.31 11.36 9.06 2.78 3.75 4.62 8.02 5.53 12.84.91 4.81.93 9.67.07 14.56l-13.54 76.81h-26.83l12.57-71.31c.49-2.75.71-5.31.67-7.68-.04-2.37-.57-4.39-1.57-6.08-1-1.68-2.64-3.02-4.91-4.01-2.27-.99-5.47-1.49-9.6-1.49h-5.5Z"/></svg>